<svg xmlns="http://www.w3.org/2000/svg" viewBox="0 0 255 185" role="img" aria-labelledby="title desc">
  <title id="title">Swinburne University of Technology Alliance with FPT Education</title>
  <desc id="desc">Swinburne University of Technology logo with Alliance with FPT Education lockup</desc>
  <rect x="0" y="0" width="110" height="110" fill="#050505"/>
  <rect x="110" y="0" width="110" height="110" fill="#ef2335"/>
  <text x="10" y="33" fill="#ffffff" font-family="Georgia, Times New Roman, serif" font-size="31" letter-spacing="-2">SWIN</text>
  <text x="10" y="65" fill="#ffffff" font-family="Georgia, Times New Roman, serif" font-size="31" letter-spacing="-2">BUR</text>
  <text x="39" y="97" fill="#ffffff" font-family="Georgia, Times New Roman, serif" font-size="31" letter-spacing="-2">NE</text>
  <path d="M20 86h9v5h-9zM22 84h5v9h-5z" fill="#ffffff"/>
  <path d="M91 86h9v5h-9zM93 84h5v9h-5z" fill="#ffffff"/>
  <text x="134" y="47" fill="#ffffff" font-family="Arial, Helvetica, sans-serif" font-size="12.5" font-weight="700">SWINBURNE</text>
  <text x="134" y="64" fill="#ffffff" font-family="Arial, Helvetica, sans-serif" font-size="12.5" font-weight="700">UNIVERSITY OF</text>
  <text x="134" y="81" fill="#ffffff" font-family="Arial, Helvetica, sans-serif" font-size="12.5" font-weight="700">TECHNOLOGY</text>
  <text x="0" y="163" fill="#2853a4" font-family="Arial, Helvetica, sans-serif" font-size="15" font-weight="700">Alliance with</text>
  <g transform="translate(104 135)">
    <path d="M5 0h24c7 0 12 5 12 12v32H17c-7 0-12-5-12-12z" fill="#f58220"/>
    <path d="M25 0h24c7 0 12 5 12 12v32H37c-7 0-12-5-12-12z" fill="#2f80c1"/>
    <path d="M45 0h24c7 0 12 5 12 12v32H57c-7 0-12-5-12-12z" fill="#31a852"/>
    <text x="14" y="29" fill="#ffffff" font-family="Arial, Helvetica, sans-serif" font-size="24" font-style="italic" font-weight="800">F</text>
    <text x="35" y="29" fill="#ffffff" font-family="Arial, Helvetica, sans-serif" font-size="24" font-style="italic" font-weight="800">P</text>
    <text x="56" y="29" fill="#ffffff" font-family="Arial, Helvetica, sans-serif" font-size="24" font-style="italic" font-weight="800">T</text>
  </g>
  <text x="187" y="163" fill="#2853a4" font-family="Arial, Helvetica, sans-serif" font-size="15" font-weight="700">Education</text>
</svg>
