<svg xmlns="http://www.w3.org/2000/svg" viewBox="0 0 240 170" role="img" aria-labelledby="title desc">
  <title id="title">Swinburne University of Technology Alliance with FPT Education</title>
  <desc id="desc">Swinburne University of Technology logo with Alliance with FPT Education lockup</desc>
  <rect width="240" height="170" fill="#ffffff"/>
  
  <!-- Top Swinburne Block -->
  <rect x="14" y="14" width="91" height="91" fill="#050505"/>
  <rect x="105" y="14" width="120" height="91" fill="#ef2335"/>
  
  <!-- Left Black Box Typography -->
  <text x="22" y="43" fill="#ffffff" font-family="Georgia, Times New Roman, serif" font-size="27" letter-spacing="-1.6">SWIN</text>
  <text x="22" y="70" fill="#ffffff" font-family="Georgia, Times New Roman, serif" font-size="27" letter-spacing="-1.6">BUR</text>
  <text x="48" y="97" fill="#ffffff" font-family="Georgia, Times New Roman, serif" font-size="27" letter-spacing="-1.6">NE</text>
  <text x="26" y="91" fill="#ffffff" font-family="Arial, Helvetica, sans-serif" font-size="11" font-weight="800">*</text>
  <text x="88" y="91" fill="#ffffff" font-family="Arial, Helvetica, sans-serif" font-size="11" font-weight="800">*</text>
  
  <!-- Right Red Box Typography (Left-aligned, exact case) -->
  <text x="120" y="48" fill="#ffffff" font-family="Arial, Helvetica, sans-serif" font-size="14" font-weight="700">Swinburne</text>
  <text x="120" y="65" fill="#ffffff" font-family="Arial, Helvetica, sans-serif" font-size="9.5" font-weight="700">UNIVERSITY OF</text>
  <text x="120" y="81" fill="#ffffff" font-family="Arial, Helvetica, sans-serif" font-size="9.5" font-weight="700">TECHNOLOGY</text>
  
  <!-- Bottom Alliance with FPT Education lockup -->
  <text x="14" y="152" fill="#2755a3" font-family="Arial, Helvetica, sans-serif" font-size="11.7" font-weight="700">Alliance with</text>
  
  <!-- Official slanted FPT logo blocks -->
  <g transform="translate(90, 118) skewX(-15)">
    <!-- Blue Block (F) -->
    <path d="M 8,6 L 26,6 L 26,42 A 8,8 0 0 1 18,50 L 0,50 L 0,14 A 8,8 0 0 1 8,6 Z" fill="#0066b2"/>
    <!-- Orange Block (P) -->
    <path d="M 36,0 L 54,0 L 54,48 A 8,8 0 0 1 46,56 L 28,56 L 28,8 A 8,8 0 0 1 36,0 Z" fill="#f37021"/>
    <!-- Green Block (T) -->
    <path d="M 64,6 L 82,6 L 82,42 A 8,8 0 0 1 74,50 L 56,50 L 56,14 A 8,8 0 0 1 64,6 Z" fill="#00a651"/>
    
    <!-- White Letters F, P, T (skewed naturally with the group) -->
    <text x="13" y="38" fill="#ffffff" font-family="Arial, Helvetica, sans-serif" font-size="22" font-weight="900" text-anchor="middle">F</text>
    <text x="41" y="41" fill="#ffffff" font-family="Arial, Helvetica, sans-serif" font-size="22" font-weight="900" text-anchor="middle">P</text>
    <text x="69" y="38" fill="#ffffff" font-family="Arial, Helvetica, sans-serif" font-size="22" font-weight="900" text-anchor="middle">T</text>
    
    <!-- Registered trademark symbol ® (styled in blue next to the green block) -->
    <text x="85" y="47" fill="#0066b2" font-family="Arial, Helvetica, sans-serif" font-size="7" font-weight="700">®</text>
  </g>
  
  <text x="178" y="152" fill="#2755a3" font-family="Arial, Helvetica, sans-serif" font-size="11.7" font-weight="700">Education</text>
</svg>
